<svg width="101" height="101" viewBox="0 0 101 101" fill="none" xmlns="http://www.w3.org/2000/svg">
    <g clip-path="url(#clip0_45_863)">
        <path fill-rule="evenodd" clip-rule="evenodd" d="M68.8416 33.9158C67.2699 32.5378 65.0094 32.5693 63.7123 32.9696C64.5621 31.9263 66.5407 31.0709 67.1241 30.9671C67.5682 31.1335 68.8416 32.4424 68.8416 33.9158ZM73.86 28.2097C72.8264 22.6805 59.9762 26.344 53.5049 23.9954C53.3808 25.6073 55.4971 28.19 57.5213 29.1459C54.0611 32.1488 50.9546 38.1992 50.3278 45.591C49.7029 38.1992 46.5962 32.1488 43.1362 29.1459C45.1603 28.19 47.2783 25.6073 47.1526 23.9954C40.6813 26.344 27.831 22.6805 26.7955 28.2097C26.5777 29.3798 27.1407 31.1633 27.7491 31.6759C27.8578 31.305 28.426 30.0919 30.2172 29.82C39.2706 28.4521 46.8292 42.4053 40.0064 48.0468C39.9024 48.1325 39.9607 48.2909 40.1016 48.2909H60.5572C60.6964 48.2909 60.7551 48.1325 60.6529 48.0468C53.8281 42.4053 61.3868 28.4521 70.44 29.82C72.233 30.0919 72.7991 31.305 72.9083 31.6758C73.5165 31.1633 74.0795 29.3801 73.86 28.2097ZM76.0619 15.5191C75.8994 14.9967 81.2077 14.9836 81.2077 18.306C81.2077 20.5329 78.0325 21.5875 78.0325 23.8983C78.0325 24.9745 79.1903 25.764 79.5456 25.764C78.7278 22.054 82.1094 23.9954 83.0225 24.6893C81.2078 19.7002 85.2931 19.7317 84.8909 17.4441C84.611 15.8454 81.0604 16.3284 79.7752 15.5191C77.4948 14.0836 74.7971 8.49797 73.0191 14.0836C76.3335 17.1608 74.405 21.6897 70.1975 21.6897C70.1975 21.6897 70.1739 22.3538 70.2125 22.4066C75.231 22.1609 76.9802 18.4727 76.0619 15.5191ZM17.5127 24.6893C18.4261 23.9954 21.8072 22.054 20.9915 25.764C21.3449 25.764 22.5027 24.9745 22.5027 23.8983C22.5027 21.5875 19.3274 20.5329 19.3274 18.306C19.3274 14.9835 24.6358 14.9967 24.4731 15.5191C23.5566 18.4725 25.3062 22.1611 30.3244 22.4066C30.3613 22.3538 30.3378 21.6897 30.3378 21.6897C26.1321 21.6897 24.2034 17.1605 27.5162 14.0836C25.7382 8.49797 23.0405 14.0836 20.7601 15.5191C19.4751 16.3285 15.9243 15.8454 15.6444 17.4441C15.2438 19.7317 19.3274 19.7004 17.5127 24.6893ZM31.7621 33.9156C33.3354 32.5377 35.5959 32.5692 36.8913 32.9695C36.045 31.9262 34.0629 31.0707 33.4813 30.9669C33.0372 31.1334 31.7621 32.4422 31.7621 33.9156ZM52.7156 2.98478L50.2675 0L47.8196 2.98478L50.2677 6.12611L52.7156 2.98478ZM66.6902 12.0102L64.9492 9.88886L63.21 12.0102L64.9492 14.0834L66.6902 12.0102ZM80.8106 73.3242L78.6038 70.9887L76.397 73.3242L78.6038 75.3727L80.8106 73.3242ZM37.3268 12.0098L35.5856 9.88855L33.8464 12.0098L35.5856 14.0833L37.3268 12.0098ZM32.3401 22.4063H38.8331C44.2921 22.4063 46.7487 19.0557 47.4909 16.1499H53.0457C53.788 19.0558 56.2426 22.4064 61.7036 22.4064H68.1967C68.1967 22.4064 69.3325 20.8655 69.6172 20.1025C70.6429 17.3566 69.3325 16.0759 67.4206 16.0759L64.9491 18.3158L62.4775 16.0759C60.5657 16.0759 59.2554 17.3566 60.2809 20.1025C60.4116 20.4536 60.725 20.9692 61.0214 21.4225C58.7174 21.1059 55.7767 19.5289 55.1315 16.1499C55.1315 16.1499 56.8339 13.4455 57.2613 12.3511C58.7963 8.4156 56.8358 6.80675 53.9688 6.80675L50.2673 11.158L46.5662 6.80675C43.6992 6.80675 41.7387 8.41545 43.2752 12.3511C43.7011 13.4456 45.405 16.1501 45.405 16.1501C44.7583 19.5291 41.8176 21.1061 39.5136 21.4226C39.8119 20.9694 40.1235 20.4536 40.2542 20.1026C41.2779 17.3567 39.9711 16.0761 38.0573 16.0761L35.5859 18.316L33.1146 16.0761C31.2011 16.0761 29.894 17.3567 30.918 20.1026C31.2027 20.8656 32.3401 22.4063 32.3401 22.4063ZM99.4701 42.5335C98.2165 43.1681 90.8641 46.6126 81.4455 45.3386C81.543 44.8893 81.6257 44.4369 81.6935 43.9822C87.962 43.2322 93.0575 42.1692 96.3048 40.3629C100.006 38.3027 101.625 33.3848 99.7565 29.7258C99.7082 29.6335 99.5742 29.6171 99.5071 29.6943C98.4834 30.8729 92.0455 37.8759 81.9031 40.0529C81.8771 39.5276 81.8291 39.0036 81.759 38.4824C86.6851 35.6886 91.4943 32.4696 93.7849 29.5263C97.2469 25.0761 96.9283 19.4001 93.6342 16.5058C93.6 16.4765 93.5548 16.4633 93.5102 16.4697C93.4656 16.476 93.4258 16.5012 93.4011 16.5389C92.3591 18.2579 82.6038 34.0256 71.8931 40.8323C71.7625 40.9159 71.6307 40.9978 71.4979 41.078C71.1911 41.2643 71.1577 41.6631 71.4191 41.9004C72.6538 43.0195 73.4214 44.577 73.4214 46.306C73.4214 49.312 71.104 51.8122 68.0409 52.3544C66.4842 52.656 64.2371 52.5686 62.0789 51.8552C61.9818 51.8237 61.8813 51.888 61.8813 51.9853V61.5068C61.8813 61.6598 62.1144 61.6978 62.1695 61.5509C63.4813 58.0752 67.409 57.3366 69.1266 57.3366C69.7449 61.0516 70.849 64.1289 72.2834 65.7851C74.6189 68.4765 78.4328 68.4387 80.0867 66.5779C80.114 66.5471 80.1257 66.5055 80.1185 66.465C80.1113 66.4245 80.0859 66.3895 80.0497 66.37C79.078 65.8116 73.5182 62.3983 72.4054 56.8045C72.8448 56.6528 73.2735 56.4813 73.6842 56.2785C75.4787 59.2486 78.0909 61.8938 80.1938 62.9041C83.7261 64.5986 86.9599 63.7744 88.3943 61.294C88.4462 61.2066 88.3826 61.0978 88.2769 61.088C86.092 60.9132 79.3862 58.9914 76.5309 54.3091C76.8578 54.009 77.1778 53.6959 77.4761 53.363C80.4635 55.6373 84.688 57.6481 87.7125 58.0585C91.2512 58.5398 95.261 57.4108 95.3583 53.2954C95.3599 53.2129 95.2862 53.1453 95.1993 53.1505C93.9407 53.2261 85.6112 53.5888 79.6761 50.182C79.8823 49.79 80.0745 49.3909 80.2525 48.9854C80.2525 48.9854 89.2206 51.1051 93.4698 50.4028C97.6924 49.7057 100.166 46.5578 99.688 42.642C99.6746 42.5443 99.5606 42.4873 99.4701 42.5335ZM20.2823 48.9859C20.4608 49.3914 20.6536 49.7905 20.8603 50.1824C14.9271 53.5875 6.60095 53.2282 5.33762 53.151C5.2488 53.1458 5.1751 53.2167 5.17667 53.2975C5.27589 57.4112 9.28384 58.5401 12.8225 58.059C15.8455 57.6486 20.0715 55.6378 23.0589 53.3634C23.3589 53.6964 23.6774 54.0094 24.0038 54.3094C21.1471 58.9914 14.443 60.9134 12.2579 61.0882C12.1524 61.0979 12.0904 61.2067 12.1407 61.2942C13.5751 63.7745 16.809 64.5986 20.343 62.9043C22.4443 61.894 25.0564 59.2488 26.8511 56.2789C27.2631 56.4815 27.6921 56.653 28.1294 56.8046C27.0168 62.3984 21.4572 65.8117 20.4852 66.3702C20.4493 66.39 20.4243 66.4249 20.4171 66.4653C20.41 66.5057 20.4214 66.5471 20.4483 66.578C22.1022 68.4389 25.9177 68.4767 28.2532 65.7853C29.6879 64.1289 30.7903 61.0518 31.4085 57.3369C33.1276 57.3369 37.0535 58.0755 38.3655 61.5512C38.4225 61.6979 38.6553 61.6598 38.6553 61.5068V51.9853C38.6553 51.8881 38.5533 51.8239 38.4561 51.8552C36.2979 52.5686 34.051 52.6562 32.496 52.3544C29.4313 51.8124 27.114 49.3122 27.114 46.306C27.114 44.5768 27.883 43.0177 29.1162 41.8986C29.3792 41.6629 29.3441 41.264 29.039 41.0778C28.9051 40.9976 28.7722 40.9157 28.6403 40.8322C17.9365 34.0289 8.18602 18.2727 7.13545 16.5419C7.08663 16.4611 6.96946 16.4447 6.89734 16.5073C3.60813 19.4031 3.28813 25.0775 6.74993 29.526C9.04053 32.4693 13.8493 35.6883 18.7741 38.482C18.7046 39.0033 18.6571 39.5272 18.6317 40.0525C8.49768 37.877 2.06495 30.8853 1.03107 29.6989C0.962412 29.6181 0.824771 29.6346 0.777999 29.7269C-1.08661 33.3874 0.531852 38.3022 4.23004 40.3624C7.47735 42.1687 12.5729 43.2317 18.8414 43.9817C18.9091 44.4364 18.9917 44.8888 19.0892 45.3381C9.6807 46.6105 2.33142 43.1743 1.06808 42.5346C0.974223 42.4868 0.860205 42.5462 0.848551 42.6451C0.372951 46.5611 2.84418 49.7057 7.06679 50.4028C11.3144 51.1051 20.2823 48.9859 20.2823 48.9859ZM78.6037 78.3805L75.3362 75.8094C74.0326 76.5858 73.0741 77.8189 72.7021 79.2641C70.7367 79.5394 65.3779 78.3495 65.8988 77.5602C71.772 69.2995 67.2797 64.3815 61.881 64.655V70.2028C61.881 71.9844 60.326 73.4281 58.4107 73.4281H54.6827C52.0083 73.4281 50.2673 76.1163 50.2673 76.1163C50.2673 76.1163 48.5267 73.4281 45.8523 73.4281H42.124C40.2075 73.4281 38.6558 71.9844 38.6558 70.2028V64.6552C33.2569 64.3818 28.7611 69.2998 34.636 77.5603C35.1521 78.3414 29.6443 79.5925 27.0606 79.2759C26.3802 78.5704 25.3982 78.1255 24.2989 78.1255C23.8317 78.1256 23.3681 78.2088 22.9299 78.3712C22.9299 78.3712 12.7776 68.7592 12.5916 68.6652L12.6754 68.4707C13.2534 67.3895 12.3688 66.2111 11.8092 66.2936C12.4592 65.5141 12.4896 62.1006 8.88352 61.3112C8.98903 61.9968 9.04258 63.3962 9.04258 63.3962C9.04258 63.3962 6.25953 61.8913 4.86202 63.1899C3.63396 64.6438 5.33809 67.2807 5.33809 67.2807C5.33809 67.2807 3.91381 67.3154 3.21175 67.256C4.24405 70.7468 7.70586 70.4995 8.45485 69.8107C8.40603 70.3661 9.65802 71.1572 10.7185 70.5225L11.1844 70.2969C11.2666 70.4071 21.1543 79.749 21.1543 79.749C20.7001 80.423 20.4841 81.2505 20.633 82.1322C20.8677 83.5102 22.0158 84.6523 23.4819 84.9488C24.5172 85.1567 25.4908 84.9554 26.2716 84.4989L28.889 86.9284C29.122 87.1394 29.437 87.2711 29.7887 87.2465C30.4288 87.2035 30.9081 86.6843 30.8596 86.0895C30.8394 85.8208 30.7021 85.5902 30.5126 85.4154C30.4707 85.3691 27.8467 82.9332 27.8467 82.9332C30.0113 81.415 34.0447 80.3457 37.3924 80.3457C37.9806 80.3457 38.257 79.8481 38.0543 79.3599C36.5378 75.7126 39.7986 73.0708 43.1716 75.2215C44.643 76.1593 46.1377 78.0069 47.2637 81.0889C41.7291 82.4291 34.7804 86.1205 33.3746 90.1505C32.8333 91.7064 34.6212 93.8274 36.7927 94.2545C36.8312 94.263 36.8714 94.2557 36.9045 94.2343C36.9375 94.2129 36.9606 94.1792 36.9687 94.1406C38.1032 88.1248 44.5726 83.6417 47.939 82.8803C48.1082 83.3335 48.0528 83.1869 48.2221 83.6384C44.5559 85.3723 41.0002 89.0295 39.9848 93.3772C39.5189 95.3682 41.7391 97.1631 43.5723 97.6544C43.6644 97.679 43.7549 97.6147 43.76 97.5257C44.1085 92.0275 46.5364 87.3583 48.7113 85.2338C48.7708 85.6491 48.8156 86.0663 48.8454 86.4847C48.8454 86.4847 46.6186 92.6901 46.6186 97.2176C46.6186 99.3237 49.7486 100.794 50.2111 101C50.7891 100.794 53.9175 99.3237 53.9175 97.2176C53.9175 92.6899 51.6907 86.4847 51.6907 86.4847C51.721 86.0663 51.7663 85.6491 51.8264 85.2338C53.9997 87.3583 56.4292 92.0258 56.7761 97.5239C56.7812 97.613 56.8733 97.679 56.9635 97.6543C58.7985 97.1632 61.0172 95.3684 60.5529 93.3775C59.5356 89.0297 55.9818 85.3726 52.3154 83.6387C52.483 83.187 52.4277 83.3337 52.597 82.8804C55.9651 83.6418 62.4329 88.1246 63.5673 94.1405C63.5755 94.179 63.5987 94.2126 63.6317 94.234C63.6647 94.2553 63.7049 94.2627 63.7434 94.2543C65.9132 93.8276 67.7044 91.7063 67.1598 90.1506C65.7574 86.1206 58.8069 82.4292 53.2724 81.089C54.4 78.0071 55.8946 76.1595 57.3658 75.2217C60.7372 73.0709 63.9979 75.713 62.4815 79.3603C62.2786 79.8481 62.5534 80.3457 63.1434 80.3457C66.93 80.3457 71.5949 81.7138 73.4412 83.5481C74.6211 85.3183 76.801 86.4506 79.2608 86.208C82.0557 85.9346 84.3346 83.8348 84.6496 81.2391C84.9244 78.9646 83.7482 76.9225 81.8732 75.81L78.6037 78.3805ZM54.52 61.8116C55.6846 61.3801 57.5094 61.7294 57.4473 63.4104C57.4324 63.7911 57.967 63.7911 58.0055 63.4021C58.354 60.8855 56.6531 60.1601 54.8737 60.4552C54.6526 59.5899 54.4717 58.8335 54.2655 58.0835C54.1014 57.4772 54.041 56.3381 54.7432 56.3381C55.1219 56.3381 54.9695 57.398 54.9344 57.8544C54.9024 58.2549 55.0465 58.4972 55.3717 58.5087C55.5745 58.5169 55.8276 58.2583 55.9783 58.0867C56.9972 56.9347 57.2335 55.1515 56.0404 54.2913C55.0419 53.5693 52.5417 54.1066 51.8545 55.135C51.7508 54.7476 51.2548 54.1082 51.0167 53.8294C50.7856 53.5578 50.7253 53.3715 51.0453 53.1326C51.1962 53.0171 51.6519 52.5641 51.6519 52.0959C51.6519 51.819 51.4375 51.308 50.7555 51.308C50.2176 51.308 49.6195 51.6806 49.6195 52.5111C49.6195 52.6959 49.6647 52.8938 49.7836 53.1064C49.4434 53.0502 48.5202 53.0734 48.046 53.1904L54.6027 71.1832C56.4794 70.2569 57.8551 68.7901 57.8551 67.2162C57.8551 65.8744 55.8793 66.3195 54.9193 67.3661C54.6109 65.6653 54.3361 64.0945 54.0362 62.5287C53.9543 62.0968 54.1733 61.9419 54.52 61.8116ZM45.249 49.5894L46.6263 53.4162C45.4468 53.6965 43.55 54.5567 43.55 55.6955C43.55 57.212 46.2326 58.1991 47.7843 58.0804C47.7071 58.4265 47.7961 58.7347 48.0374 59.0165C47.4744 59.0165 46.4122 59.2785 46.0635 59.6543C45.2408 58.888 43.9538 58.6094 43.3422 59.0758C42.7274 59.5456 42.7091 60.3417 43.3507 61.2416C43.7979 61.8646 43.9656 62.4794 43.463 63.2011C45.3329 63.2011 44.6441 60.7702 45.3764 60.7702C45.2809 61.2416 45.3395 61.7871 45.5524 62.392C45.6932 62.794 45.6932 63.0792 45.452 63.4665C44.8488 64.4307 43.9105 66.6458 44.0378 68.6483C43.4245 68.6449 43.1129 68.4948 43.3291 67.6577C43.4094 67.3459 43.2168 67.1236 42.9622 67.5077C42.6806 67.9313 42.5448 68.6548 42.5448 68.9644C42.5448 70.7479 44.6693 71.1071 45.4803 70.7298C47.8264 72.9999 52.4343 72.3944 53.9775 71.6329L45.8643 49.3714C45.6983 48.9512 45.1033 49.1525 45.249 49.5894ZM44.9674 67.9264C44.7998 67.0099 46.075 65.3717 47.6971 63.7912C47.3519 64.8212 47.5663 66.5963 48.2432 67.2078C47.0668 67.2078 45.6693 67.4286 44.9674 67.9264Z" fill="#67DAFF"/>
    </g>
    <defs>
        <clipPath id="clip0_45_863">
            <rect width="101" height="101" fill="white"/>
        </clipPath>
    </defs>
</svg>
